<svg width="80" height="80" viewBox="0 0 80 80" fill="none" xmlns="http://www.w3.org/2000/svg">
<path d="M0 40C0 17.9086 17.9086 0 40 0H80V40C80 62.0914 62.0914 80 40 80C17.9086 80 0 62.0914 0 40Z" fill="#1B2F1F" fill-opacity="0.7"/>
<path d="M25.4341 28.1938C25.5822 28.1938 25.7557 28.179 25.9546 28.1494C26.1535 28.1198 26.3037 28.0859 26.4053 28.0479V28.9238C26.2995 28.9704 26.1344 29.0148 25.9102 29.0571C25.6901 29.1037 25.4658 29.127 25.2373 29.127C23.8747 29.127 23.1934 28.4097 23.1934 26.9751V22.9189H22.2095V22.373L23.2061 21.916L23.6631 20.4307H24.3423V22.0303H26.3545V22.9189H24.3423V26.9434C24.3423 27.3454 24.4375 27.6543 24.6279 27.8701C24.8226 28.0859 25.0913 28.1938 25.4341 28.1938ZM32.5498 29V24.5439C32.5498 23.9769 32.4229 23.5558 32.1689 23.2808C31.9193 23.0015 31.5257 22.8618 30.9883 22.8618C30.2816 22.8618 29.7632 23.0586 29.4331 23.4521C29.1073 23.8457 28.9443 24.4953 28.9443 25.4009V29H27.8018V19.123H28.9443V22.0176C28.9443 22.3984 28.9232 22.7243 28.8809 22.9951H28.957C29.1644 22.6566 29.4585 22.3921 29.8394 22.2017C30.2202 22.0112 30.6497 21.916 31.1279 21.916C31.9743 21.916 32.6112 22.1191 33.0386 22.5254C33.466 22.9274 33.6797 23.5728 33.6797 24.4614V29H32.5498ZM38.8022 29.127C37.757 29.127 36.936 28.8117 36.3394 28.1812C35.7469 27.5464 35.4507 26.6746 35.4507 25.5659C35.4507 24.4487 35.7279 23.5601 36.2822 22.8999C36.8366 22.2355 37.5856 21.9033 38.5293 21.9033C39.4053 21.9033 40.1035 22.1868 40.624 22.7539C41.1445 23.3167 41.4048 24.0806 41.4048 25.0454V25.7373H36.6313C36.6525 26.5286 36.8535 27.1296 37.2344 27.54C37.6152 27.9505 38.1548 28.1558 38.853 28.1558C39.2254 28.1558 39.5788 28.124 39.9131 28.0605C40.2474 27.9928 40.6388 27.8638 41.0874 27.6733V28.6763C40.7023 28.8413 40.3405 28.9577 40.002 29.0254C39.6634 29.0931 39.2635 29.127 38.8022 29.127ZM38.5166 22.8364C37.9707 22.8364 37.5391 23.012 37.2217 23.3633C36.9043 23.7145 36.716 24.2033 36.6567 24.8296H40.2051C40.1966 24.1779 40.0464 23.6828 39.7544 23.3442C39.4624 23.0057 39.0498 22.8364 38.5166 22.8364Z" fill="white"/>
<path d="M15.7181 37.944H20.5781V44.478C19.8941 44.694 19.1921 44.868 18.4721 45C17.7521 45.12 16.9361 45.18 16.0241 45.18C14.0801 45.18 12.5861 44.604 11.5421 43.452C10.4981 42.3 9.97606 40.668 9.97606 38.556C9.97606 37.224 10.2341 36.066 10.7501 35.082C11.2781 34.086 12.0401 33.318 13.0361 32.778C14.0321 32.238 15.2441 31.968 16.6721 31.968C17.3681 31.968 18.0401 32.04 18.6881 32.184C19.3481 32.328 19.9481 32.514 20.4881 32.742L19.6961 34.632C19.2761 34.44 18.8021 34.272 18.2741 34.128C17.7461 33.984 17.1941 33.912 16.6181 33.912C15.7421 33.912 14.9861 34.104 14.3501 34.488C13.7141 34.872 13.2221 35.418 12.8741 36.126C12.5381 36.822 12.3701 37.644 12.3701 38.592C12.3701 39.504 12.5021 40.308 12.7661 41.004C13.0301 41.7 13.4501 42.246 14.0261 42.642C14.6021 43.038 15.3521 43.236 16.2761 43.236C16.7321 43.236 17.1161 43.212 17.4281 43.164C17.7401 43.116 18.0341 43.062 18.3101 43.002V39.906H15.7181V37.944ZM28.5446 35.064C28.7006 35.064 28.8686 35.07 29.0486 35.082C29.2406 35.094 29.4026 35.118 29.5346 35.154L29.3366 37.26C29.2166 37.236 29.0726 37.218 28.9046 37.206C28.7366 37.182 28.5866 37.17 28.4546 37.17C27.9746 37.17 27.5246 37.272 27.1046 37.476C26.6846 37.668 26.3426 37.974 26.0786 38.394C25.8266 38.802 25.7006 39.318 25.7006 39.942V45H23.4326V35.244H25.1786L25.5026 36.936H25.6106C25.8986 36.42 26.2946 35.982 26.7986 35.622C27.3026 35.25 27.8846 35.064 28.5446 35.064ZM34.9152 35.064C36.2232 35.064 37.2552 35.454 38.0112 36.234C38.7792 37.014 39.1632 38.1 39.1632 39.492V40.644H32.7192C32.7432 41.532 32.9892 42.222 33.4572 42.714C33.9252 43.194 34.5732 43.434 35.4012 43.434C36.0252 43.434 36.5892 43.374 37.0932 43.254C37.5972 43.122 38.1132 42.936 38.6412 42.696V44.514C38.1612 44.742 37.6632 44.91 37.1472 45.018C36.6312 45.126 36.0132 45.18 35.2932 45.18C34.3452 45.18 33.4992 45 32.7552 44.64C32.0232 44.268 31.4472 43.71 31.0272 42.966C30.6192 42.222 30.4152 41.298 30.4152 40.194C30.4152 38.526 30.8292 37.254 31.6572 36.378C32.4852 35.502 33.5712 35.064 34.9152 35.064ZM34.9152 36.738C34.3032 36.738 33.8052 36.936 33.4212 37.332C33.0492 37.716 32.8332 38.292 32.7732 39.06H36.9672C36.9552 38.388 36.7812 37.836 36.4452 37.404C36.1212 36.96 35.6112 36.738 34.9152 36.738ZM45.3742 35.064C46.6822 35.064 47.7142 35.454 48.4702 36.234C49.2382 37.014 49.6222 38.1 49.6222 39.492V40.644H43.1782C43.2022 41.532 43.4482 42.222 43.9162 42.714C44.3842 43.194 45.0322 43.434 45.8602 43.434C46.4842 43.434 47.0482 43.374 47.5522 43.254C48.0562 43.122 48.5722 42.936 49.1002 42.696V44.514C48.6202 44.742 48.1222 44.91 47.6062 45.018C47.0902 45.126 46.4722 45.18 45.7522 45.18C44.8042 45.18 43.9582 45 43.2142 44.64C42.4822 44.268 41.9062 43.71 41.4862 42.966C41.0782 42.222 40.8742 41.298 40.8742 40.194C40.8742 38.526 41.2882 37.254 42.1162 36.378C42.9442 35.502 44.0302 35.064 45.3742 35.064ZM45.3742 36.738C44.7622 36.738 44.2642 36.936 43.8802 37.332C43.5082 37.716 43.2922 38.292 43.2322 39.06H47.4262C47.4142 38.388 47.2402 37.836 46.9042 37.404C46.5802 36.96 46.0702 36.738 45.3742 36.738ZM57.1292 35.064C58.2212 35.064 59.0732 35.346 59.6852 35.91C60.3092 36.474 60.6212 37.386 60.6212 38.646V45H58.3532V39.096C58.3532 37.632 57.7532 36.9 56.5532 36.9C55.6412 36.9 55.0172 37.188 54.6812 37.764C54.3452 38.34 54.1772 39.162 54.1772 40.23V45H51.9092V35.244H53.6552L53.9792 36.522H54.1052C54.4172 36.018 54.8432 35.652 55.3832 35.424C55.9352 35.184 56.5172 35.064 57.1292 35.064ZM37.0007 64L35.8307 60.598H30.9887L29.8367 64H27.3887L32.1047 51.094H34.7327L39.4487 64H37.0007ZM34.1207 55.306C34.0727 55.138 34.0007 54.91 33.9047 54.622C33.8087 54.334 33.7127 54.04 33.6167 53.74C33.5327 53.428 33.4667 53.17 33.4187 52.966C33.3587 53.206 33.2807 53.482 33.1847 53.794C33.1007 54.106 33.0167 54.4 32.9327 54.676C32.8487 54.952 32.7887 55.162 32.7527 55.306L31.6187 58.618H35.2367L34.1207 55.306ZM46.0528 54.064C47.1928 54.064 48.1108 54.49 48.8068 55.342C49.5028 56.182 49.8508 57.436 49.8508 59.104C49.8508 60.772 49.4908 62.038 48.7708 62.902C48.0628 63.754 47.1388 64.18 45.9988 64.18C45.2788 64.18 44.6968 64.048 44.2528 63.784C43.8088 63.52 43.4548 63.214 43.1908 62.866H43.0468C43.0828 63.094 43.1128 63.346 43.1368 63.622C43.1728 63.886 43.1908 64.132 43.1908 64.36V68.32H40.9228V54.244H42.7588L43.0828 55.54H43.1908C43.4548 55.132 43.8148 54.784 44.2708 54.496C44.7268 54.208 45.3208 54.064 46.0528 54.064ZM45.4048 55.9C44.6008 55.9 44.0308 56.14 43.6948 56.62C43.3708 57.1 43.2028 57.826 43.1908 58.798V59.086C43.1908 60.13 43.3468 60.934 43.6588 61.498C43.9828 62.05 44.5768 62.326 45.4408 62.326C46.1488 62.326 46.6708 62.038 47.0068 61.462C47.3548 60.874 47.5288 60.076 47.5288 59.068C47.5288 58.06 47.3548 57.28 47.0068 56.728C46.6708 56.176 46.1368 55.9 45.4048 55.9ZM57.3204 54.064C58.4604 54.064 59.3784 54.49 60.0744 55.342C60.7704 56.182 61.1184 57.436 61.1184 59.104C61.1184 60.772 60.7584 62.038 60.0384 62.902C59.3304 63.754 58.4064 64.18 57.2664 64.18C56.5464 64.18 55.9644 64.048 55.5204 63.784C55.0764 63.52 54.7224 63.214 54.4584 62.866H54.3144C54.3504 63.094 54.3804 63.346 54.4044 63.622C54.4404 63.886 54.4584 64.132 54.4584 64.36V68.32H52.1904V54.244H54.0264L54.3504 55.54H54.4584C54.7224 55.132 55.0824 54.784 55.5384 54.496C55.9944 54.208 56.5884 54.064 57.3204 54.064ZM56.6724 55.9C55.8684 55.9 55.2984 56.14 54.9624 56.62C54.6384 57.1 54.4704 57.826 54.4584 58.798V59.086C54.4584 60.13 54.6144 60.934 54.9264 61.498C55.2504 62.05 55.8444 62.326 56.7084 62.326C57.4164 62.326 57.9384 62.038 58.2744 61.462C58.6224 60.874 58.7964 60.076 58.7964 59.068C58.7964 58.06 58.6224 57.28 58.2744 56.728C57.9384 56.176 57.4044 55.9 56.6724 55.9Z" fill="white"/>
</svg>
