<svg width="186" height="34" viewBox="0 0 186 34" fill="none" xmlns="http://www.w3.org/2000/svg">
<path d="M8.2 33.46C5.716 33.46 3.81467 32.7547 2.496 31.344C1.17733 29.9333 0.518 27.94 0.518 25.364V8.436C0.518 5.86 1.17733 3.86667 2.496 2.456C3.81467 1.04533 5.716 0.339998 8.2 0.339998C10.684 0.339998 12.5853 1.04533 13.904 2.456C15.2227 3.86667 15.882 5.86 15.882 8.436V25.364C15.882 27.94 15.2227 29.9333 13.904 31.344C12.5853 32.7547 10.684 33.46 8.2 33.46ZM8.2 28.86C9.948 28.86 10.822 27.802 10.822 25.686V8.114C10.822 5.998 9.948 4.94 8.2 4.94C6.452 4.94 5.578 5.998 5.578 8.114V25.686C5.578 27.802 6.452 28.86 8.2 28.86ZM26.664 33.46C24.2106 33.46 22.34 32.77 21.052 31.39C19.764 29.9793 19.12 27.9707 19.12 25.364V0.799998H24.18V25.732C24.18 26.836 24.3946 27.6333 24.824 28.124C25.284 28.6147 25.928 28.86 26.756 28.86C27.584 28.86 28.2126 28.6147 28.642 28.124C29.102 27.6333 29.332 26.836 29.332 25.732V0.799998H34.208V25.364C34.208 27.9707 33.564 29.9793 32.276 31.39C30.988 32.77 29.1173 33.46 26.664 33.46ZM37.8118 0.799998H45.3098C47.9164 0.799998 49.8178 1.41333 51.0138 2.64C52.2098 3.836 52.8078 5.69133 52.8078 8.206V10.184C52.8078 13.5267 51.7038 15.6427 49.4958 16.532V16.624C50.7224 16.992 51.5811 17.7433 52.0718 18.878C52.5931 20.0127 52.8538 21.5307 52.8538 23.432V29.09C52.8538 30.01 52.8844 30.7613 52.9458 31.344C53.0071 31.896 53.1604 32.448 53.4058 33H48.2538C48.0698 32.4787 47.9471 31.988 47.8858 31.528C47.8244 31.068 47.7938 30.24 47.7938 29.044V23.156C47.7938 21.684 47.5484 20.6567 47.0578 20.074C46.5978 19.4913 45.7851 19.2 44.6198 19.2H42.8718V33H37.8118V0.799998ZM44.7118 14.6C45.7238 14.6 46.4751 14.3393 46.9658 13.818C47.4871 13.2967 47.7478 12.4227 47.7478 11.196V8.712C47.7478 7.54667 47.5331 6.70333 47.1038 6.182C46.7051 5.66067 46.0611 5.4 45.1718 5.4H42.8718V14.6H44.7118ZM63.7317 0.799998H71.1837C73.6984 0.799998 75.5844 1.47466 76.8417 2.824C78.099 4.17333 78.7277 6.15133 78.7277 8.758V11.932C78.7277 14.5387 78.099 16.5167 76.8417 17.866C75.5844 19.2153 73.6984 19.89 71.1837 19.89H68.7917V33H63.7317V0.799998ZM71.1837 15.29C72.0117 15.29 72.625 15.06 73.0237 14.6C73.453 14.14 73.6677 13.358 73.6677 12.254V8.436C73.6677 7.332 73.453 6.55 73.0237 6.09C72.625 5.63 72.0117 5.4 71.1837 5.4H68.7917V15.29H71.1837ZM83.7687 0.799998H90.6227L95.8667 33H90.8067L89.8867 26.606V26.698H84.1367L83.2167 33H78.5247L83.7687 0.799998ZM89.2887 22.328L87.0347 6.412H86.9427L84.7347 22.328H89.2887ZM98.3215 0.799998H105.82C108.426 0.799998 110.328 1.41333 111.524 2.64C112.72 3.836 113.318 5.69133 113.318 8.206V10.184C113.318 13.5267 112.214 15.6427 110.006 16.532V16.624C111.232 16.992 112.091 17.7433 112.582 18.878C113.103 20.0127 113.364 21.5307 113.364 23.432V29.09C113.364 30.01 113.394 30.7613 113.456 31.344C113.517 31.896 113.67 32.448 113.916 33H108.764C108.58 32.4787 108.457 31.988 108.396 31.528C108.334 31.068 108.304 30.24 108.304 29.044V23.156C108.304 21.684 108.058 20.6567 107.568 20.074C107.108 19.4913 106.295 19.2 105.13 19.2H103.382V33H98.3215V0.799998ZM105.222 14.6C106.234 14.6 106.985 14.3393 107.476 13.818C107.997 13.2967 108.258 12.4227 108.258 11.196V8.712C108.258 7.54667 108.043 6.70333 107.614 6.182C107.215 5.66067 106.571 5.4 105.682 5.4H103.382V14.6H105.222ZM120.74 5.4H115.45V0.799998H131.09V5.4H125.8V33H120.74V5.4ZM133.54 0.799998H139.888L144.81 20.074H144.902V0.799998H149.41V33H144.212L138.14 9.494H138.048V33H133.54V0.799998ZM153.171 0.799998H166.971V5.4H158.231V13.91H165.177V18.51H158.231V28.4H166.971V33H153.171V0.799998ZM169.882 0.799998H177.38C179.987 0.799998 181.888 1.41333 183.084 2.64C184.28 3.836 184.878 5.69133 184.878 8.206V10.184C184.878 13.5267 183.774 15.6427 181.566 16.532V16.624C182.793 16.992 183.651 17.7433 184.142 18.878C184.663 20.0127 184.924 21.5307 184.924 23.432V29.09C184.924 30.01 184.955 30.7613 185.016 31.344C185.077 31.896 185.231 32.448 185.476 33H180.324C180.14 32.4787 180.017 31.988 179.956 31.528C179.895 31.068 179.864 30.24 179.864 29.044V23.156C179.864 21.684 179.619 20.6567 179.128 20.074C178.668 19.4913 177.855 19.2 176.69 19.2H174.942V33H169.882V0.799998ZM176.782 14.6C177.794 14.6 178.545 14.3393 179.036 13.818C179.557 13.2967 179.818 12.4227 179.818 11.196V8.712C179.818 7.54667 179.603 6.70333 179.174 6.182C178.775 5.66067 178.131 5.4 177.242 5.4H174.942V14.6H176.782Z" fill="#1B2F1F" fill-opacity="0.8"/>
</svg>
