<svg width="100" height="100" viewBox="0 0 100 100" fill="none" xmlns="http://www.w3.org/2000/svg">
<path d="M0 0H50C77.6142 0 100 22.3858 100 50V50C100 77.6142 77.6142 100 50 100V100C22.3858 100 0 77.6142 0 50V0Z" fill="white" fill-opacity="0.15"/>
<path d="M34.9624 35.0698C35.1333 35.0698 35.3335 35.0527 35.563 35.0186C35.7925 34.9844 35.9658 34.9453 36.083 34.9014V35.9121C35.9609 35.9658 35.7705 36.0171 35.5117 36.0659C35.2578 36.1196 34.999 36.1465 34.7354 36.1465C33.1631 36.1465 32.377 35.3188 32.377 33.6636V28.9834H31.2417V28.3535L32.3916 27.8262L32.9189 26.1123H33.7026V27.958H36.0244V28.9834H33.7026V33.627C33.7026 34.0908 33.8125 34.4473 34.0322 34.6963C34.2568 34.9453 34.5669 35.0698 34.9624 35.0698ZM43.1729 36V30.8584C43.1729 30.2041 43.0264 29.7183 42.7334 29.4009C42.4453 29.0786 41.9912 28.9175 41.3711 28.9175C40.5557 28.9175 39.9575 29.1445 39.5767 29.5986C39.2007 30.0527 39.0127 30.8022 39.0127 31.8472V36H37.6943V24.6035H39.0127V27.9434C39.0127 28.3828 38.9883 28.7588 38.9395 29.0713H39.0273C39.2666 28.6807 39.606 28.3755 40.0454 28.1558C40.4849 27.936 40.9805 27.8262 41.5322 27.8262C42.5088 27.8262 43.2437 28.0605 43.7368 28.5293C44.23 28.9932 44.4766 29.7378 44.4766 30.7632V36H43.1729ZM50.3872 36.1465C49.1812 36.1465 48.2339 35.7827 47.5454 35.0552C46.8618 34.3228 46.52 33.3169 46.52 32.0376C46.52 30.7485 46.8398 29.7231 47.4795 28.9614C48.1191 28.1948 48.9834 27.8115 50.0723 27.8115C51.083 27.8115 51.8887 28.1387 52.4893 28.793C53.0898 29.4424 53.3901 30.3237 53.3901 31.437V32.2354H47.8823C47.9067 33.1484 48.1387 33.8418 48.5781 34.3154C49.0176 34.7891 49.6401 35.0259 50.4458 35.0259C50.8755 35.0259 51.2832 34.9893 51.6689 34.916C52.0547 34.8379 52.5063 34.689 53.0239 34.4692V35.6265C52.5796 35.8169 52.1621 35.9512 51.7715 36.0293C51.3809 36.1074 50.9194 36.1465 50.3872 36.1465ZM50.0576 28.8882C49.4277 28.8882 48.9297 29.0908 48.5635 29.4961C48.1973 29.9014 47.98 30.4653 47.9116 31.188H52.0059C51.9961 30.436 51.8228 29.8647 51.4858 29.4741C51.1489 29.0835 50.6729 28.8882 50.0576 28.8882Z" fill="#1B2F1F" fill-opacity="0.7"/>
<path d="M21.2908 44.592H27.7708V53.304C26.8588 53.592 25.9228 53.824 24.9628 54C24.0028 54.16 22.9148 54.24 21.6988 54.24C19.1068 54.24 17.1148 53.472 15.7228 51.936C14.3308 50.4 13.6348 48.224 13.6348 45.408C13.6348 43.632 13.9788 42.088 14.6668 40.776C15.3708 39.448 16.3868 38.424 17.7148 37.704C19.0428 36.984 20.6588 36.624 22.5628 36.624C23.4908 36.624 24.3868 36.72 25.2508 36.912C26.1308 37.104 26.9308 37.352 27.6508 37.656L26.5948 40.176C26.0348 39.92 25.4028 39.696 24.6988 39.504C23.9948 39.312 23.2588 39.216 22.4908 39.216C21.3228 39.216 20.3148 39.472 19.4668 39.984C18.6188 40.496 17.9628 41.224 17.4988 42.168C17.0508 43.096 16.8268 44.192 16.8268 45.456C16.8268 46.672 17.0028 47.744 17.3548 48.672C17.7068 49.6 18.2668 50.328 19.0348 50.856C19.8028 51.384 20.8028 51.648 22.0348 51.648C22.6428 51.648 23.1548 51.616 23.5708 51.552C23.9868 51.488 24.3788 51.416 24.7468 51.336V47.208H21.2908V44.592ZM38.3928 40.752C38.6008 40.752 38.8248 40.76 39.0648 40.776C39.3208 40.792 39.5368 40.824 39.7128 40.872L39.4488 43.68C39.2888 43.648 39.0968 43.624 38.8728 43.608C38.6488 43.576 38.4488 43.56 38.2728 43.56C37.6328 43.56 37.0328 43.696 36.4728 43.968C35.9128 44.224 35.4568 44.632 35.1048 45.192C34.7688 45.736 34.6008 46.424 34.6008 47.256V54H31.5768V40.992H33.9048L34.3368 43.248H34.4808C34.8648 42.56 35.3928 41.976 36.0648 41.496C36.7368 41 37.5128 40.752 38.3928 40.752ZM46.8869 40.752C48.6309 40.752 50.0069 41.272 51.0149 42.312C52.0389 43.352 52.5509 44.8 52.5509 46.656V48.192H43.9589C43.9909 49.376 44.3189 50.296 44.9429 50.952C45.5669 51.592 46.4309 51.912 47.5349 51.912C48.3669 51.912 49.1189 51.832 49.7909 51.672C50.4629 51.496 51.1509 51.248 51.8549 50.928V53.352C51.2149 53.656 50.5509 53.88 49.8629 54.024C49.1749 54.168 48.3509 54.24 47.3909 54.24C46.1269 54.24 44.9989 54 44.0069 53.52C43.0309 53.024 42.2629 52.28 41.7029 51.288C41.1589 50.296 40.8869 49.064 40.8869 47.592C40.8869 45.368 41.4389 43.672 42.5429 42.504C43.6469 41.336 45.0949 40.752 46.8869 40.752ZM46.8869 42.984C46.0709 42.984 45.4069 43.248 44.8949 43.776C44.3989 44.288 44.1109 45.056 44.0309 46.08H49.6229C49.6069 45.184 49.3749 44.448 48.9269 43.872C48.4949 43.28 47.8149 42.984 46.8869 42.984ZM60.8323 40.752C62.5763 40.752 63.9523 41.272 64.9603 42.312C65.9843 43.352 66.4963 44.8 66.4963 46.656V48.192H57.9043C57.9363 49.376 58.2643 50.296 58.8883 50.952C59.5123 51.592 60.3763 51.912 61.4803 51.912C62.3123 51.912 63.0643 51.832 63.7363 51.672C64.4083 51.496 65.0963 51.248 65.8003 50.928V53.352C65.1603 53.656 64.4963 53.88 63.8083 54.024C63.1203 54.168 62.2963 54.24 61.3363 54.24C60.0723 54.24 58.9443 54 57.9523 53.52C56.9763 53.024 56.2083 52.28 55.6483 51.288C55.1043 50.296 54.8323 49.064 54.8323 47.592C54.8323 45.368 55.3843 43.672 56.4883 42.504C57.5923 41.336 59.0403 40.752 60.8323 40.752ZM60.8323 42.984C60.0163 42.984 59.3523 43.248 58.8403 43.776C58.3443 44.288 58.0563 45.056 57.9763 46.08H63.5683C63.5523 45.184 63.3203 44.448 62.8723 43.872C62.4403 43.28 61.7603 42.984 60.8323 42.984ZM76.5056 40.752C77.9616 40.752 79.0976 41.128 79.9136 41.88C80.7456 42.632 81.1616 43.848 81.1616 45.528V54H78.1376V46.128C78.1376 44.176 77.3376 43.2 75.7376 43.2C74.5216 43.2 73.6896 43.584 73.2416 44.352C72.7936 45.12 72.5696 46.216 72.5696 47.64V54H69.5456V40.992H71.8736L72.3056 42.696H72.4736C72.8896 42.024 73.4576 41.536 74.1776 41.232C74.9136 40.912 75.6896 40.752 76.5056 40.752ZM49.6676 75L48.1076 70.464H41.6516L40.1156 75H36.8516L43.1396 57.792H46.6436L52.9316 75H49.6676ZM45.8276 63.408C45.7636 63.184 45.6676 62.88 45.5396 62.496C45.4116 62.112 45.2836 61.72 45.1556 61.32C45.0436 60.904 44.9556 60.56 44.8916 60.288C44.8116 60.608 44.7076 60.976 44.5796 61.392C44.4676 61.808 44.3556 62.2 44.2436 62.568C44.1316 62.936 44.0516 63.216 44.0036 63.408L42.4916 67.824H47.3156L45.8276 63.408ZM61.7371 61.752C63.2571 61.752 64.4811 62.32 65.4091 63.456C66.3371 64.576 66.8011 66.248 66.8011 68.472C66.8011 70.696 66.3211 72.384 65.3611 73.536C64.4171 74.672 63.1851 75.24 61.6651 75.24C60.7051 75.24 59.9291 75.064 59.3371 74.712C58.7451 74.36 58.2731 73.952 57.9211 73.488H57.7291C57.7771 73.792 57.8171 74.128 57.8491 74.496C57.8971 74.848 57.9211 75.176 57.9211 75.48V80.76H54.8971V61.992H57.3451L57.7771 63.72H57.9211C58.2731 63.176 58.7531 62.712 59.3611 62.328C59.9691 61.944 60.7611 61.752 61.7371 61.752ZM60.8731 64.2C59.8011 64.2 59.0411 64.52 58.5931 65.16C58.1611 65.8 57.9371 66.768 57.9211 68.064V68.448C57.9211 69.84 58.1291 70.912 58.5451 71.664C58.9771 72.4 59.7691 72.768 60.9211 72.768C61.8651 72.768 62.5611 72.384 63.0091 71.616C63.4731 70.832 63.7051 69.768 63.7051 68.424C63.7051 67.08 63.4731 66.04 63.0091 65.304C62.5611 64.568 61.8491 64.2 60.8731 64.2ZM76.7606 61.752C78.2806 61.752 79.5046 62.32 80.4326 63.456C81.3606 64.576 81.8246 66.248 81.8246 68.472C81.8246 70.696 81.3446 72.384 80.3846 73.536C79.4406 74.672 78.2086 75.24 76.6886 75.24C75.7286 75.24 74.9526 75.064 74.3606 74.712C73.7686 74.36 73.2966 73.952 72.9446 73.488H72.7526C72.8006 73.792 72.8406 74.128 72.8726 74.496C72.9206 74.848 72.9446 75.176 72.9446 75.48V80.76H69.9206V61.992H72.3686L72.8006 63.72H72.9446C73.2966 63.176 73.7766 62.712 74.3846 62.328C74.9926 61.944 75.7846 61.752 76.7606 61.752ZM75.8966 64.2C74.8246 64.2 74.0646 64.52 73.6166 65.16C73.1846 65.8 72.9606 66.768 72.9446 68.064V68.448C72.9446 69.84 73.1526 70.912 73.5686 71.664C74.0006 72.4 74.7926 72.768 75.9446 72.768C76.8886 72.768 77.5846 72.384 78.0326 71.616C78.4966 70.832 78.7286 69.768 78.7286 68.424C78.7286 67.08 78.4966 66.04 78.0326 65.304C77.5846 64.568 76.8726 64.2 75.8966 64.2Z" fill="#1B2F1F" fill-opacity="0.7"/>
</svg>
