<svg viewBox="0 0 100 100" >
    <path d="M0 50C0 22.3858 22.3858 0 50 0H100V50C100 77.6142 77.6142 100 50 100V100C22.3858 100 0 77.6142 0 50V50Z" fill="white" fill-opacity="0.15"/>
    <path d="M33.9624 36.0698C34.1333 36.0698 34.3335 36.0527 34.563 36.0186C34.7925 35.9844 34.9658 35.9453 35.083 35.9014V36.9121C34.9609 36.9658 34.7705 37.0171 34.5117 37.0659C34.2578 37.1196 33.999 37.1465 33.7354 37.1465C32.1631 37.1465 31.377 36.3188 31.377 34.6636V29.9834H30.2417V29.3535L31.3916 28.8262L31.9189 27.1123H32.7026V28.958H35.0244V29.9834H32.7026V34.627C32.7026 35.0908 32.8125 35.4473 33.0322 35.6963C33.2568 35.9453 33.5669 36.0698 33.9624 36.0698ZM42.1729 37V31.8584C42.1729 31.2041 42.0264 30.7183 41.7334 30.4009C41.4453 30.0786 40.9912 29.9175 40.3711 29.9175C39.5557 29.9175 38.9575 30.1445 38.5767 30.5986C38.2007 31.0527 38.0127 31.8022 38.0127 32.8472V37H36.6943V25.6035H38.0127V28.9434C38.0127 29.3828 37.9883 29.7588 37.9395 30.0713H38.0273C38.2666 29.6807 38.606 29.3755 39.0454 29.1558C39.4849 28.936 39.9805 28.8262 40.5322 28.8262C41.5088 28.8262 42.2437 29.0605 42.7368 29.5293C43.23 29.9932 43.4766 30.7378 43.4766 31.7632V37H42.1729ZM49.3872 37.1465C48.1812 37.1465 47.2339 36.7827 46.5454 36.0552C45.8618 35.3228 45.52 34.3169 45.52 33.0376C45.52 31.7485 45.8398 30.7231 46.4795 29.9614C47.1191 29.1948 47.9834 28.8115 49.0723 28.8115C50.083 28.8115 50.8887 29.1387 51.4893 29.793C52.0898 30.4424 52.3901 31.3237 52.3901 32.437V33.2354H46.8823C46.9067 34.1484 47.1387 34.8418 47.5781 35.3154C48.0176 35.7891 48.6401 36.0259 49.4458 36.0259C49.8755 36.0259 50.2832 35.9893 50.6689 35.916C51.0547 35.8379 51.5063 35.689 52.0239 35.4692V36.6265C51.5796 36.8169 51.1621 36.9512 50.7715 37.0293C50.3809 37.1074 49.9194 37.1465 49.3872 37.1465ZM49.0576 29.8882C48.4277 29.8882 47.9297 30.0908 47.5635 30.4961C47.1973 30.9014 46.98 31.4653 46.9116 32.188H51.0059C50.9961 31.436 50.8228 30.8647 50.4858 30.4741C50.1489 30.0835 49.6729 29.8882 49.0576 29.8882Z" fill="#1B2F1F" fill-opacity="0.7"/>
    <path d="M20.2908 45.592H26.7708V54.304C25.8588 54.592 24.9228 54.824 23.9628 55C23.0028 55.16 21.9148 55.24 20.6988 55.24C18.1068 55.24 16.1148 54.472 14.7228 52.936C13.3308 51.4 12.6348 49.224 12.6348 46.408C12.6348 44.632 12.9788 43.088 13.6668 41.776C14.3708 40.448 15.3868 39.424 16.7148 38.704C18.0428 37.984 19.6588 37.624 21.5628 37.624C22.4908 37.624 23.3868 37.72 24.2508 37.912C25.1308 38.104 25.9308 38.352 26.6508 38.656L25.5948 41.176C25.0348 40.92 24.4028 40.696 23.6988 40.504C22.9948 40.312 22.2588 40.216 21.4908 40.216C20.3228 40.216 19.3148 40.472 18.4668 40.984C17.6188 41.496 16.9628 42.224 16.4988 43.168C16.0508 44.096 15.8268 45.192 15.8268 46.456C15.8268 47.672 16.0028 48.744 16.3548 49.672C16.7068 50.6 17.2668 51.328 18.0348 51.856C18.8028 52.384 19.8028 52.648 21.0348 52.648C21.6428 52.648 22.1548 52.616 22.5708 52.552C22.9868 52.488 23.3788 52.416 23.7468 52.336V48.208H20.2908V45.592ZM37.3928 41.752C37.6008 41.752 37.8248 41.76 38.0648 41.776C38.3208 41.792 38.5368 41.824 38.7128 41.872L38.4488 44.68C38.2888 44.648 38.0968 44.624 37.8728 44.608C37.6488 44.576 37.4488 44.56 37.2728 44.56C36.6328 44.56 36.0328 44.696 35.4728 44.968C34.9128 45.224 34.4568 45.632 34.1048 46.192C33.7688 46.736 33.6008 47.424 33.6008 48.256V55H30.5768V41.992H32.9048L33.3368 44.248H33.4808C33.8648 43.56 34.3928 42.976 35.0648 42.496C35.7368 42 36.5128 41.752 37.3928 41.752ZM45.8869 41.752C47.6309 41.752 49.0069 42.272 50.0149 43.312C51.0389 44.352 51.5509 45.8 51.5509 47.656V49.192H42.9589C42.9909 50.376 43.3189 51.296 43.9429 51.952C44.5669 52.592 45.4309 52.912 46.5349 52.912C47.3669 52.912 48.1189 52.832 48.7909 52.672C49.4629 52.496 50.1509 52.248 50.8549 51.928V54.352C50.2149 54.656 49.5509 54.88 48.8629 55.024C48.1749 55.168 47.3509 55.24 46.3909 55.24C45.1269 55.24 43.9989 55 43.0069 54.52C42.0309 54.024 41.2629 53.28 40.7029 52.288C40.1589 51.296 39.8869 50.064 39.8869 48.592C39.8869 46.368 40.4389 44.672 41.5429 43.504C42.6469 42.336 44.0949 41.752 45.8869 41.752ZM45.8869 43.984C45.0709 43.984 44.4069 44.248 43.8949 44.776C43.3989 45.288 43.1109 46.056 43.0309 47.08H48.6229C48.6069 46.184 48.3749 45.448 47.9269 44.872C47.4949 44.28 46.8149 43.984 45.8869 43.984ZM59.8323 41.752C61.5763 41.752 62.9523 42.272 63.9603 43.312C64.9843 44.352 65.4963 45.8 65.4963 47.656V49.192H56.9043C56.9363 50.376 57.2643 51.296 57.8883 51.952C58.5123 52.592 59.3763 52.912 60.4803 52.912C61.3123 52.912 62.0643 52.832 62.7363 52.672C63.4083 52.496 64.0963 52.248 64.8003 51.928V54.352C64.1603 54.656 63.4963 54.88 62.8083 55.024C62.1203 55.168 61.2963 55.24 60.3363 55.24C59.0723 55.24 57.9443 55 56.9523 54.52C55.9763 54.024 55.2083 53.28 54.6483 52.288C54.1043 51.296 53.8323 50.064 53.8323 48.592C53.8323 46.368 54.3843 44.672 55.4883 43.504C56.5923 42.336 58.0403 41.752 59.8323 41.752ZM59.8323 43.984C59.0163 43.984 58.3523 44.248 57.8403 44.776C57.3443 45.288 57.0563 46.056 56.9763 47.08H62.5683C62.5523 46.184 62.3203 45.448 61.8723 44.872C61.4403 44.28 60.7603 43.984 59.8323 43.984ZM75.5056 41.752C76.9616 41.752 78.0976 42.128 78.9136 42.88C79.7456 43.632 80.1616 44.848 80.1616 46.528V55H77.1376V47.128C77.1376 45.176 76.3376 44.2 74.7376 44.2C73.5216 44.2 72.6896 44.584 72.2416 45.352C71.7936 46.12 71.5696 47.216 71.5696 48.64V55H68.5456V41.992H70.8736L71.3056 43.696H71.4736C71.8896 43.024 72.4576 42.536 73.1776 42.232C73.9136 41.912 74.6896 41.752 75.5056 41.752ZM48.6676 76L47.1076 71.464H40.6516L39.1156 76H35.8516L42.1396 58.792H45.6436L51.9316 76H48.6676ZM44.8276 64.408C44.7636 64.184 44.6676 63.88 44.5396 63.496C44.4116 63.112 44.2836 62.72 44.1556 62.32C44.0436 61.904 43.9556 61.56 43.8916 61.288C43.8116 61.608 43.7076 61.976 43.5796 62.392C43.4676 62.808 43.3556 63.2 43.2436 63.568C43.1316 63.936 43.0516 64.216 43.0036 64.408L41.4916 68.824H46.3156L44.8276 64.408ZM60.7371 62.752C62.2571 62.752 63.4811 63.32 64.4091 64.456C65.3371 65.576 65.8011 67.248 65.8011 69.472C65.8011 71.696 65.3211 73.384 64.3611 74.536C63.4171 75.672 62.1851 76.24 60.6651 76.24C59.7051 76.24 58.9291 76.064 58.3371 75.712C57.7451 75.36 57.2731 74.952 56.9211 74.488H56.7291C56.7771 74.792 56.8171 75.128 56.8491 75.496C56.8971 75.848 56.9211 76.176 56.9211 76.48V81.76H53.8971V62.992H56.3451L56.7771 64.72H56.9211C57.2731 64.176 57.7531 63.712 58.3611 63.328C58.9691 62.944 59.7611 62.752 60.7371 62.752ZM59.8731 65.2C58.8011 65.2 58.0411 65.52 57.5931 66.16C57.1611 66.8 56.9371 67.768 56.9211 69.064V69.448C56.9211 70.84 57.1291 71.912 57.5451 72.664C57.9771 73.4 58.7691 73.768 59.9211 73.768C60.8651 73.768 61.5611 73.384 62.0091 72.616C62.4731 71.832 62.7051 70.768 62.7051 69.424C62.7051 68.08 62.4731 67.04 62.0091 66.304C61.5611 65.568 60.8491 65.2 59.8731 65.2ZM75.7606 62.752C77.2806 62.752 78.5046 63.32 79.4326 64.456C80.3606 65.576 80.8246 67.248 80.8246 69.472C80.8246 71.696 80.3446 73.384 79.3846 74.536C78.4406 75.672 77.2086 76.24 75.6886 76.24C74.7286 76.24 73.9526 76.064 73.3606 75.712C72.7686 75.36 72.2966 74.952 71.9446 74.488H71.7526C71.8006 74.792 71.8406 75.128 71.8726 75.496C71.9206 75.848 71.9446 76.176 71.9446 76.48V81.76H68.9206V62.992H71.3686L71.8006 64.72H71.9446C72.2966 64.176 72.7766 63.712 73.3846 63.328C73.9926 62.944 74.7846 62.752 75.7606 62.752ZM74.8966 65.2C73.8246 65.2 73.0646 65.52 72.6166 66.16C72.1846 66.8 71.9606 67.768 71.9446 69.064V69.448C71.9446 70.84 72.1526 71.912 72.5686 72.664C73.0006 73.4 73.7926 73.768 74.9446 73.768C75.8886 73.768 76.5846 73.384 77.0326 72.616C77.4966 71.832 77.7286 70.768 77.7286 69.424C77.7286 68.08 77.4966 67.04 77.0326 66.304C76.5846 65.568 75.8726 65.2 74.8966 65.2Z" fill="#1B2F1F" fill-opacity="0.7"/>
</svg>
