<svg width="26" height="26" viewBox="0 0 26 26" fill="none" xmlns="http://www.w3.org/2000/svg">
    <path d="M23.5625 13C23.5625 7.16676 18.8332 2.4375 13 2.4375C7.16676 2.4375 2.4375 7.16676 2.4375 13C2.4375 18.8332 7.16676 23.5625 13 23.5625C18.8332 23.5625 23.5625 18.8332 23.5625 13ZM12.7639 17.6394C12.6881 17.5642 12.6279 17.4749 12.5866 17.3765C12.5454 17.278 12.524 17.1724 12.5235 17.0657C12.5231 16.959 12.5437 16.8533 12.5842 16.7545C12.6246 16.6558 12.6841 16.5659 12.7593 16.4902L15.4162 13.8125H8.63281C8.41732 13.8125 8.21066 13.7269 8.05829 13.5745C7.90592 13.4222 7.82031 13.2155 7.82031 13C7.82031 12.7845 7.90592 12.5778 8.05829 12.4255C8.21066 12.2731 8.41732 12.1875 8.63281 12.1875H15.4162L12.7593 9.5098C12.6841 9.43398 12.6247 9.3441 12.5842 9.24529C12.5438 9.14647 12.5233 9.04067 12.5237 8.93391C12.5242 8.82715 12.5457 8.72153 12.587 8.62308C12.6283 8.52463 12.6886 8.43527 12.7644 8.36012C12.8402 8.28496 12.9301 8.22548 13.0289 8.18506C13.1277 8.14464 13.2335 8.12408 13.3403 8.12455C13.5559 8.1255 13.7623 8.21206 13.9141 8.3652L17.9456 12.4277C18.0966 12.5799 18.1814 12.7856 18.1814 13C18.1814 13.2144 18.0966 13.4201 17.9456 13.5723L13.9141 17.6348C13.8389 17.7107 13.7495 17.7711 13.651 17.8124C13.5525 17.8537 13.4467 17.8752 13.3399 17.8756C13.2331 17.8761 13.1272 17.8554 13.0284 17.8149C12.9295 17.7743 12.8396 17.7147 12.7639 17.6394Z" />
</svg>