<svg height="23" width="33" viewBox="0 0 33 23">
    <path d="M27.2818 5.58356C24.7563 9.0629 20.7775 11.1186 16.5016 11.1186C12.2229 11.1186 8.24109 9.06223 5.71692 5.58356H3.99663L4.13886 5.8016C6.89304 10.0307 11.515 12.5553 16.5013 12.5553C21.4866 12.5553 26.1076 10.0307 28.8611 5.8006L29.003 5.58356H27.2818V5.58356Z" />
    <path d="M15.9647 12.4606V16.1393H17.2847V12.4606H15.9647Z" />
    <path d="M21.0794 11.5105L22.6251 15.2009L23.8402 14.6782L22.2945 10.9878L21.0794 11.5105Z" />
    <path d="M25.4017 9.17092L27.819 12.3061L28.8592 11.4825L26.4419 8.34723L25.4017 9.17092Z" />
    <path d="M10.8494 10.9684L9.46275 14.8297L10.7032 15.2872L12.0899 11.4259L10.8494 10.9684Z" />
    <path d="M6.7574 8.4519L4.32431 11.6079L5.36447 12.4315L7.79756 9.27559L6.7574 8.4519Z" />
</svg>