<svg width="33" height="41" viewBox="0 0 33 41">
    <path d="M16.5 23.9167C19.0264 23.8825 21.5016 23.2034 23.6879 21.9445C25.8743 20.6857 27.6983 18.8894 28.985 16.728C29.0392 16.6271 29.0675 16.5144 29.0675 16.4C29.0675 16.2856 29.0392 16.173 28.985 16.072C27.6983 13.9107 25.8743 12.1144 23.6879 10.8555C21.5016 9.59666 19.0264 8.91755 16.5 8.88336C9.34999 8.88336 4.27624 15.7167 4.12499 16.0037C4.03801 16.1177 3.99092 16.2569 3.99092 16.4C3.99092 16.5431 4.03801 16.6823 4.12499 16.7964C4.27624 17.097 9.34999 23.9167 16.5 23.9167ZM16.5 10.25C18.7108 10.2948 20.8766 10.8792 22.8068 11.9516C24.737 13.024 26.3723 14.5517 27.5687 16.4C26.3823 18.2422 24.7587 19.7665 22.8406 20.8389C20.9226 21.9113 18.7688 22.4989 16.5687 22.55C11 22.55 6.68249 17.7667 5.49999 16.4C6.68249 15.0334 11 10.25 16.5 10.25Z" />
    <path d="M16.5 21.033C17.4219 21.033 18.3231 20.7612 19.0896 20.2522C19.8562 19.7431 20.4536 19.0195 20.8064 18.1729C21.1592 17.3264 21.2515 16.3948 21.0717 15.4961C20.8918 14.5974 20.4479 13.7719 19.796 13.1239C19.1441 12.476 18.3136 12.0348 17.4094 11.856C16.5052 11.6772 15.5679 11.769 14.7162 12.1196C13.8645 12.4703 13.1365 13.0641 12.6243 13.826C12.1121 14.5879 11.8387 15.4836 11.8387 16.4C11.8387 17.6287 12.3298 18.8071 13.204 19.676C14.0781 20.5449 15.2638 21.033 16.5 21.033V21.033ZM16.5 13.1336C17.15 13.1336 17.7853 13.3252 18.3257 13.6841C18.8662 14.043 19.2874 14.5532 19.5361 15.15C19.7848 15.7468 19.8499 16.4036 19.7231 17.0372C19.5963 17.6708 19.2833 18.2528 18.8237 18.7096C18.3641 19.1664 17.7786 19.4775 17.1411 19.6035C16.5036 19.7296 15.8429 19.6649 15.2424 19.4177C14.6419 19.1704 14.1287 18.7518 13.7676 18.2146C13.4065 17.6775 13.2137 17.046 13.2137 16.4C13.2137 15.5337 13.56 14.7029 14.1763 14.0903C14.7926 13.4778 15.6284 13.1336 16.5 13.1336V13.1336Z" />
</svg>