<svg viewBox="0 0 62 62">
    <circle cx="31" cy="31" r="30" fill="white" fillOpacity="0.5"/>
    <path fill="#4285F4" d="M44 31.1423C44 30.2689 43.9297 29.3909 43.7798 28.5318H31.7507V33.479H38.6392C38.3533 35.0746 37.4349 36.486 36.09 37.383V40.593H40.1996C42.6129 38.3554 44 35.051 44 31.1423Z" />
    <path fill="#34A853" d="M31.7507 43.6944C35.1902 43.6944 38.0909 42.5568 40.2043 40.593L36.0947 37.3829C34.9513 38.1666 33.4752 38.6103 31.7554 38.6103C28.4283 38.6103 25.6073 36.3491 24.5951 33.309H20.3543V36.6182C22.5192 40.9565 26.9288 43.6944 31.7507 43.6944Z" />
    <path fill="#FBBC04" d="M24.5904 33.309C24.0562 31.7135 24.0562 29.9857 24.5904 28.3901V25.081H20.3543C18.5454 28.7111 18.5454 32.988 20.3543 36.6182L24.5904 33.309Z" />
    <path fill="#EA4335" d="M31.7507 23.0841C33.5689 23.0558 35.3262 23.745 36.6429 25.0101L40.284 21.3422C37.9784 19.1613 34.9185 17.9622 31.7507 18C26.9288 18 22.5192 20.738 20.3543 25.081L24.5904 28.3901C25.5979 25.3453 28.4236 23.0841 31.7507 23.0841Z" />
</svg>