<svg viewBox="0 0 166 65">
<path d="M0.732969 0.999996H10.633V55H26.923V64H0.732969V0.999996ZM45.6289 64.9C40.7689 64.9 37.0489 63.52 34.4689 60.76C31.8889 58 30.5989 54.1 30.5989 49.06V15.94C30.5989 10.9 31.8889 7 34.4689 4.24C37.0489 1.48 40.7689 0.0999966 45.6289 0.0999966C50.4889 0.0999966 54.2089 1.48 56.7889 4.24C59.3689 7 60.6589 10.9 60.6589 15.94V49.06C60.6589 54.1 59.3689 58 56.7889 60.76C54.2089 63.52 50.4889 64.9 45.6289 64.9ZM45.6289 55.9C49.0489 55.9 50.7589 53.83 50.7589 49.69V15.31C50.7589 11.17 49.0489 9.1 45.6289 9.1C42.2089 9.1 40.4989 11.17 40.4989 15.31V49.69C40.4989 53.83 42.2089 55.9 45.6289 55.9ZM81.3941 64.9C76.5941 64.9 72.9341 63.55 70.4141 60.85C67.8941 58.09 66.6341 54.16 66.6341 49.06V15.94C66.6341 10.84 67.8941 6.94 70.4141 4.24C72.9341 1.48 76.5941 0.0999966 81.3941 0.0999966C86.1941 0.0999966 89.8541 1.48 92.3741 4.24C94.8941 6.94 96.1541 10.84 96.1541 15.94V21.34H86.7941V15.31C86.7941 11.17 85.0841 9.1 81.6641 9.1C78.2441 9.1 76.5341 11.17 76.5341 15.31V49.78C76.5341 53.86 78.2441 55.9 81.6641 55.9C85.0841 55.9 86.7941 53.86 86.7941 49.78V37.45H81.8441V28.45H96.1541V49.06C96.1541 54.16 94.8941 58.09 92.3741 60.85C89.8541 63.55 86.1941 64.9 81.3941 64.9ZM116.924 0.999996H126.824V64H116.924V0.999996ZM134.239 0.999996H146.659L156.289 38.71H156.469V0.999996H165.289V64H155.119L143.239 18.01H143.059V64H134.239V0.999996Z" />
</svg>
