<svg height="65" width="207" viewBox="0 0 207 65" >
    <path d="M14.7065 64.9C9.90648 64.9 6.27648 63.55 3.81648 60.85C1.35648 58.09 0.126485 54.16 0.126485 49.06V45.46H9.48648V49.78C9.48648 53.86 11.1965 55.9 14.6165 55.9C16.2965 55.9 17.5565 55.42 18.3965 54.46C19.2965 53.44 19.7465 51.82 19.7465 49.6C19.7465 46.96 19.1465 44.65 17.9465 42.67C16.7465 40.63 14.5265 38.2 11.2865 35.38C7.20648 31.78 4.35648 28.54 2.73648 25.66C1.11648 22.72 0.306484 19.42 0.306484 15.76C0.306484 10.78 1.56648 6.94 4.08648 4.24C6.60648 1.48 10.2665 0.0999966 15.0665 0.0999966C19.8065 0.0999966 23.3765 1.48 25.7765 4.24C28.2365 6.94 29.4665 10.84 29.4665 15.94V18.55H20.1065V15.31C20.1065 13.15 19.6865 11.59 18.8465 10.63C18.0065 9.61 16.7765 9.1 15.1565 9.1C11.8565 9.1 10.2065 11.11 10.2065 15.13C10.2065 17.41 10.8065 19.54 12.0065 21.52C13.2665 23.5 15.5165 25.9 18.7565 28.72C22.8965 32.32 25.7465 35.59 27.3065 38.53C28.8665 41.47 29.6465 44.92 29.6465 48.88C29.6465 54.04 28.3565 58 25.7765 60.76C23.2565 63.52 19.5665 64.9 14.7065 64.9ZM35.3228 0.999996H45.2228V64H35.3228V0.999996ZM66.6773 64.9C61.8773 64.9 58.2173 63.55 55.6973 60.85C53.1773 58.09 51.9173 54.16 51.9173 49.06V15.94C51.9173 10.84 53.1773 6.94 55.6973 4.24C58.2173 1.48 61.8773 0.0999966 66.6773 0.0999966C71.4773 0.0999966 75.1373 1.48 77.6573 4.24C80.1773 6.94 81.4373 10.84 81.4373 15.94V21.34H72.0773V15.31C72.0773 11.17 70.3673 9.1 66.9473 9.1C63.5273 9.1 61.8173 11.17 61.8173 15.31V49.78C61.8173 53.86 63.5273 55.9 66.9473 55.9C70.3673 55.9 72.0773 53.86 72.0773 49.78V37.45H67.1273V28.45H81.4373V49.06C81.4373 54.16 80.1773 58.09 77.6573 60.85C75.1373 63.55 71.4773 64.9 66.6773 64.9ZM87.7935 0.999996H100.214L109.844 38.71H110.024V0.999996H118.844V64H108.674L96.7935 18.01H96.6135V64H87.7935V0.999996ZM155.016 64.9C150.216 64.9 146.556 63.55 144.036 60.85C141.516 58.09 140.256 54.16 140.256 49.06V0.999996H150.156V49.78C150.156 51.94 150.576 53.5 151.416 54.46C152.316 55.42 153.576 55.9 155.196 55.9C156.816 55.9 158.046 55.42 158.886 54.46C159.786 53.5 160.236 51.94 160.236 49.78V0.999996H169.776V49.06C169.776 54.16 168.516 58.09 165.996 60.85C163.476 63.55 159.816 64.9 155.016 64.9ZM176.827 0.999996H191.407C196.327 0.999996 200.017 2.32 202.477 4.96C204.937 7.6 206.167 11.47 206.167 16.57V22.78C206.167 27.88 204.937 31.75 202.477 34.39C200.017 37.03 196.327 38.35 191.407 38.35H186.727V64H176.827V0.999996ZM191.407 29.35C193.027 29.35 194.227 28.9 195.007 28C195.847 27.1 196.267 25.57 196.267 23.41V15.94C196.267 13.78 195.847 12.25 195.007 11.35C194.227 10.45 193.027 10 191.407 10H186.727V29.35H191.407Z" />
</svg>