<svg width="62" height="62" viewBox="0 0 62 62" fill="none" xmlns="http://www.w3.org/2000/svg">
    <circle cx="31" cy="31" r="30" class="circle-stroke-color" strokeOpacity="0.4" fill="white" fillOpacity="0.5"/>
    <path fill="#1DA1F2" d="M27.2809 42.8887C36.7149 42.8887 41.8749 35.0727 41.8749 28.2947C41.8749 28.0727 41.8749 27.8517 41.8599 27.6317C42.8638 26.9056 43.7303 26.0066 44.4189 24.9767C43.4828 25.3915 42.4898 25.6636 41.4729 25.7837C42.5437 25.1427 43.345 24.1345 43.7279 22.9467C42.7211 23.5442 41.6196 23.9652 40.4709 24.1917C39.6976 23.3694 38.6748 22.8249 37.5608 22.6424C36.4468 22.46 35.3037 22.6498 34.3085 23.1824C33.3132 23.7151 32.5212 24.5609 32.0551 25.589C31.589 26.6171 31.4747 27.7701 31.7299 28.8697C29.6907 28.7675 27.6957 28.2376 25.8746 27.3143C24.0534 26.3911 22.4468 25.0952 21.1589 23.5107C20.503 24.6399 20.3021 25.9766 20.5971 27.2487C20.8922 28.5208 21.6609 29.6326 22.7469 30.3577C21.9307 30.3335 21.1322 30.1134 20.4189 29.7157C20.4189 29.7367 20.4189 29.7587 20.4189 29.7807C20.4192 30.965 20.8292 32.1126 21.5792 33.029C22.3292 33.9455 23.3731 34.5742 24.5339 34.8087C23.7788 35.0147 22.9865 35.0448 22.2179 34.8967C22.5457 35.9159 23.1838 36.8071 24.043 37.4458C24.9022 38.0845 25.9395 38.4386 27.0099 38.4587C25.1937 39.8862 22.95 40.6611 20.6399 40.6587C20.2318 40.658 19.8241 40.6332 19.4189 40.5847C21.7646 42.09 24.4938 42.8885 27.2809 42.8847" />
</svg>