<svg width="100" height="100" viewBox="0 0 100 100" fill="none" xmlns="http://www.w3.org/2000/svg">
<path d="M0 50C0 22.3858 22.3858 0 50 0H100V50C100 77.6142 77.6142 100 50 100V100C22.3858 100 0 77.6142 0 50V50Z" fill="#364B34"/>
<path d="M16.2908 47.592H22.7708V56.304C21.8588 56.592 20.9228 56.824 19.9628 57C19.0028 57.16 17.9148 57.24 16.6988 57.24C14.1068 57.24 12.1148 56.472 10.7228 54.936C9.33075 53.4 8.63475 51.224 8.63475 48.408C8.63475 46.632 8.97875 45.088 9.66675 43.776C10.3708 42.448 11.3868 41.424 12.7148 40.704C14.0428 39.984 15.6588 39.624 17.5628 39.624C18.4908 39.624 19.3868 39.72 20.2508 39.912C21.1308 40.104 21.9308 40.352 22.6508 40.656L21.5948 43.176C21.0348 42.92 20.4028 42.696 19.6988 42.504C18.9948 42.312 18.2588 42.216 17.4908 42.216C16.3228 42.216 15.3148 42.472 14.4668 42.984C13.6188 43.496 12.9628 44.224 12.4988 45.168C12.0508 46.096 11.8268 47.192 11.8268 48.456C11.8268 49.672 12.0028 50.744 12.3548 51.672C12.7068 52.6 13.2668 53.328 14.0348 53.856C14.8028 54.384 15.8028 54.648 17.0348 54.648C17.6428 54.648 18.1548 54.616 18.5708 54.552C18.9868 54.488 19.3788 54.416 19.7468 54.336V50.208H16.2908V47.592ZM33.3928 43.752C33.6008 43.752 33.8248 43.76 34.0648 43.776C34.3208 43.792 34.5368 43.824 34.7128 43.872L34.4488 46.68C34.2888 46.648 34.0968 46.624 33.8728 46.608C33.6488 46.576 33.4488 46.56 33.2728 46.56C32.6328 46.56 32.0328 46.696 31.4728 46.968C30.9128 47.224 30.4568 47.632 30.1048 48.192C29.7688 48.736 29.6008 49.424 29.6008 50.256V57H26.5768V43.992H28.9048L29.3368 46.248H29.4808C29.8648 45.56 30.3928 44.976 31.0648 44.496C31.7368 44 32.5128 43.752 33.3928 43.752ZM41.8869 43.752C43.6309 43.752 45.0069 44.272 46.0149 45.312C47.0389 46.352 47.5509 47.8 47.5509 49.656V51.192H38.9589C38.9909 52.376 39.3189 53.296 39.9429 53.952C40.5669 54.592 41.4309 54.912 42.5349 54.912C43.3669 54.912 44.1189 54.832 44.7909 54.672C45.4629 54.496 46.1509 54.248 46.8549 53.928V56.352C46.2149 56.656 45.5509 56.88 44.8629 57.024C44.1749 57.168 43.3509 57.24 42.3909 57.24C41.1269 57.24 39.9989 57 39.0069 56.52C38.0309 56.024 37.2629 55.28 36.7029 54.288C36.1589 53.296 35.8869 52.064 35.8869 50.592C35.8869 48.368 36.4389 46.672 37.5429 45.504C38.6469 44.336 40.0949 43.752 41.8869 43.752ZM41.8869 45.984C41.0709 45.984 40.4069 46.248 39.8949 46.776C39.3989 47.288 39.1109 48.056 39.0309 49.08H44.6229C44.6069 48.184 44.3749 47.448 43.9269 46.872C43.4949 46.28 42.8149 45.984 41.8869 45.984ZM55.8323 43.752C57.5763 43.752 58.9523 44.272 59.9603 45.312C60.9843 46.352 61.4963 47.8 61.4963 49.656V51.192H52.9043C52.9363 52.376 53.2643 53.296 53.8883 53.952C54.5123 54.592 55.3763 54.912 56.4803 54.912C57.3123 54.912 58.0643 54.832 58.7363 54.672C59.4083 54.496 60.0963 54.248 60.8003 53.928V56.352C60.1603 56.656 59.4963 56.88 58.8083 57.024C58.1203 57.168 57.2963 57.24 56.3363 57.24C55.0723 57.24 53.9443 57 52.9523 56.52C51.9763 56.024 51.2083 55.28 50.6483 54.288C50.1043 53.296 49.8323 52.064 49.8323 50.592C49.8323 48.368 50.3843 46.672 51.4883 45.504C52.5923 44.336 54.0403 43.752 55.8323 43.752ZM55.8323 45.984C55.0163 45.984 54.3523 46.248 53.8403 46.776C53.3443 47.288 53.0563 48.056 52.9763 49.08H58.5683C58.5523 48.184 58.3203 47.448 57.8723 46.872C57.4403 46.28 56.7603 45.984 55.8323 45.984ZM71.5056 43.752C72.9616 43.752 74.0976 44.128 74.9136 44.88C75.7456 45.632 76.1616 46.848 76.1616 48.528V57H73.1376V49.128C73.1376 47.176 72.3376 46.2 70.7376 46.2C69.5216 46.2 68.6896 46.584 68.2416 47.352C67.7936 48.12 67.5696 49.216 67.5696 50.64V57H64.5456V43.992H66.8736L67.3056 45.696H67.4736C67.8896 45.024 68.4576 44.536 69.1776 44.232C69.9136 43.912 70.6896 43.752 71.5056 43.752ZM44.6676 81L43.1076 76.464H36.6516L35.1156 81H31.8516L38.1396 63.792H41.6436L47.9316 81H44.6676ZM40.8276 69.408C40.7636 69.184 40.6676 68.88 40.5396 68.496C40.4116 68.112 40.2836 67.72 40.1556 67.32C40.0436 66.904 39.9556 66.56 39.8916 66.288C39.8116 66.608 39.7076 66.976 39.5796 67.392C39.4676 67.808 39.3556 68.2 39.2436 68.568C39.1316 68.936 39.0516 69.216 39.0036 69.408L37.4916 73.824H42.3156L40.8276 69.408ZM56.7371 67.752C58.2571 67.752 59.4811 68.32 60.4091 69.456C61.3371 70.576 61.8011 72.248 61.8011 74.472C61.8011 76.696 61.3211 78.384 60.3611 79.536C59.4171 80.672 58.1851 81.24 56.6651 81.24C55.7051 81.24 54.9291 81.064 54.3371 80.712C53.7451 80.36 53.2731 79.952 52.9211 79.488H52.7291C52.7771 79.792 52.8171 80.128 52.8491 80.496C52.8971 80.848 52.9211 81.176 52.9211 81.48V86.76H49.8971V67.992H52.3451L52.7771 69.72H52.9211C53.2731 69.176 53.7531 68.712 54.3611 68.328C54.9691 67.944 55.7611 67.752 56.7371 67.752ZM55.8731 70.2C54.8011 70.2 54.0411 70.52 53.5931 71.16C53.1611 71.8 52.9371 72.768 52.9211 74.064V74.448C52.9211 75.84 53.1291 76.912 53.5451 77.664C53.9771 78.4 54.7691 78.768 55.9211 78.768C56.8651 78.768 57.5611 78.384 58.0091 77.616C58.4731 76.832 58.7051 75.768 58.7051 74.424C58.7051 73.08 58.4731 72.04 58.0091 71.304C57.5611 70.568 56.8491 70.2 55.8731 70.2ZM71.7606 67.752C73.2806 67.752 74.5046 68.32 75.4326 69.456C76.3606 70.576 76.8246 72.248 76.8246 74.472C76.8246 76.696 76.3446 78.384 75.3846 79.536C74.4406 80.672 73.2086 81.24 71.6886 81.24C70.7286 81.24 69.9526 81.064 69.3606 80.712C68.7686 80.36 68.2966 79.952 67.9446 79.488H67.7526C67.8006 79.792 67.8406 80.128 67.8726 80.496C67.9206 80.848 67.9446 81.176 67.9446 81.48V86.76H64.9206V67.992H67.3686L67.8006 69.72H67.9446C68.2966 69.176 68.7766 68.712 69.3846 68.328C69.9926 67.944 70.7846 67.752 71.7606 67.752ZM70.8966 70.2C69.8246 70.2 69.0646 70.52 68.6166 71.16C68.1846 71.8 67.9606 72.768 67.9446 74.064V74.448C67.9446 75.84 68.1526 76.912 68.5686 77.664C69.0006 78.4 69.7926 78.768 70.9446 78.768C71.8886 78.768 72.5846 78.384 73.0326 77.616C73.4966 76.832 73.7286 75.768 73.7286 74.424C73.7286 73.08 73.4966 72.04 73.0326 71.304C72.5846 70.568 71.8726 70.2 70.8966 70.2Z" fill="white"/>
<path d="M28.878 35.936C29.074 35.936 29.2747 35.922 29.48 35.894C29.6853 35.8567 29.8627 35.81 30.012 35.754V36.874C29.844 36.9487 29.6247 37.0093 29.354 37.056C29.0927 37.112 28.8267 37.14 28.556 37.14C28.1453 37.14 27.7673 37.07 27.422 36.93C27.0767 36.79 26.8013 36.5473 26.596 36.202C26.4 35.8567 26.302 35.376 26.302 34.76V30.588H25.252V29.916L26.358 29.356L26.876 27.76H27.786V29.454H29.942V30.588H27.786V34.732C27.786 35.1427 27.884 35.446 28.08 35.642C28.2853 35.838 28.5513 35.936 28.878 35.936ZM33.0054 29.202C33.0054 29.4447 32.996 29.6827 32.9774 29.916C32.9587 30.14 32.94 30.3267 32.9214 30.476H33.0194C33.262 30.084 33.584 29.7947 33.9854 29.608C34.396 29.4213 34.8394 29.328 35.3154 29.328C36.202 29.328 36.8787 29.5473 37.3454 29.986C37.8214 30.4247 38.0594 31.1247 38.0594 32.086V37H36.5894V32.296C36.5894 31.12 36.0714 30.532 35.0354 30.532C34.2607 30.532 33.7287 30.7653 33.4394 31.232C33.15 31.6893 33.0054 32.3473 33.0054 33.206V37H31.5214V26.36H33.0054V29.202ZM43.3077 29.314C44.2971 29.314 45.0764 29.622 45.6457 30.238C46.2151 30.8447 46.4997 31.6753 46.4997 32.73V33.542H41.4317C41.4504 34.3167 41.6511 34.9093 42.0337 35.32C42.4257 35.7307 42.9717 35.936 43.6717 35.936C44.1571 35.936 44.5864 35.894 44.9597 35.81C45.3424 35.7167 45.7344 35.5813 46.1357 35.404V36.636C45.7531 36.804 45.3704 36.93 44.9877 37.014C44.6051 37.098 44.1477 37.14 43.6157 37.14C42.8784 37.14 42.2297 36.9953 41.6697 36.706C41.1191 36.4167 40.6851 35.9873 40.3677 35.418C40.0597 34.8393 39.9057 34.13 39.9057 33.29C39.9057 32.4407 40.0457 31.722 40.3257 31.134C40.6151 30.546 41.0117 30.098 41.5157 29.79C42.0291 29.4727 42.6264 29.314 43.3077 29.314ZM43.3077 30.462C42.7757 30.462 42.3464 30.6347 42.0197 30.98C41.7024 31.3253 41.5157 31.8153 41.4597 32.45H45.0157C45.0064 31.862 44.8617 31.386 44.5817 31.022C44.3111 30.6487 43.8864 30.462 43.3077 30.462Z" fill="white"/>
</svg>
